<svg width="167" height="42" viewBox="0 0 167 42" fill="none" xmlns="http://www.w3.org/2000/svg">
<path d="M62.8982 34H57.9764L66.9377 8.54545H72.6301L81.6039 34H76.682L69.8833 13.7656H69.6845L62.8982 34ZM63.0598 24.0195H76.4831V27.7234H63.0598V24.0195ZM92.4792 41.5568C90.8634 41.5568 89.4755 41.3372 88.3155 40.8981C87.1555 40.4672 86.2233 39.8872 85.519 39.158C84.8147 38.4289 84.3258 37.621 84.0524 36.7344L88.1042 35.7525C88.2865 36.1254 88.5517 36.4941 88.8997 36.8587C89.2477 37.2315 89.7158 37.5381 90.3041 37.7784C90.9007 38.027 91.6506 38.1513 92.5538 38.1513C93.8298 38.1513 94.8863 37.8406 95.7232 37.2191C96.5601 36.6059 96.9785 35.5951 96.9785 34.1864V30.5696H96.7548C96.5228 31.0336 96.1831 31.5101 95.7356 31.9989C95.2965 32.4878 94.7123 32.898 93.9831 33.2294C93.2622 33.5608 92.3549 33.7266 91.2612 33.7266C89.7946 33.7266 88.4647 33.3827 87.2715 32.695C86.0866 31.9989 85.142 30.9632 84.4377 29.5877C83.7416 28.204 83.3936 26.4722 83.3936 24.3924C83.3936 22.296 83.7416 20.527 84.4377 19.0852C85.142 17.6352 86.0907 16.5373 87.2839 15.7915C88.4771 15.0375 89.807 14.6605 91.2736 14.6605C92.3922 14.6605 93.312 14.8511 94.0328 15.2322C94.762 15.6051 95.342 16.0567 95.7729 16.587C96.2038 17.109 96.5311 17.602 96.7548 18.0661H97.0034V14.9091H101.441V34.3107C101.441 35.9431 101.051 37.2937 100.272 38.3626C99.4933 39.4315 98.4286 40.2311 97.0779 40.7614C95.7273 41.2917 94.1944 41.5568 92.4792 41.5568ZM92.5165 30.1967C93.4694 30.1967 94.2814 29.9647 94.9526 29.5007C95.6237 29.0367 96.1333 28.3697 96.4813 27.4996C96.8294 26.6296 97.0034 25.5856 97.0034 24.3675C97.0034 23.1661 96.8294 22.1138 96.4813 21.2106C96.1416 20.3074 95.6362 19.6072 94.965 19.1101C94.3021 18.6046 93.486 18.3519 92.5165 18.3519C91.5139 18.3519 90.677 18.6129 90.0058 19.1349C89.3347 19.657 88.8292 20.3737 88.4895 21.2852C88.1498 22.1883 87.9799 23.2158 87.9799 24.3675C87.9799 25.5359 88.1498 26.5592 88.4895 27.4375C88.8375 28.3075 89.3471 28.987 90.0183 29.4759C90.6977 29.9564 91.5305 30.1967 92.5165 30.1967ZM114.503 34.3729C112.589 34.3729 110.936 33.9751 109.544 33.1797C108.16 32.3759 107.096 31.2408 106.35 29.7741C105.604 28.2992 105.231 26.5633 105.231 24.5664C105.231 22.6026 105.604 20.8791 106.35 19.396C107.104 17.9045 108.156 16.7444 109.507 15.9158C110.858 15.079 112.444 14.6605 114.267 14.6605C115.444 14.6605 116.554 14.8511 117.598 15.2322C118.65 15.6051 119.579 16.1851 120.382 16.9723C121.194 17.7595 121.832 18.7621 122.296 19.9801C122.76 21.1899 122.992 22.6316 122.992 24.3054V25.685H107.344V22.6523H118.679C118.671 21.7906 118.485 21.0241 118.12 20.353C117.756 19.6735 117.246 19.1391 116.591 18.7496C115.945 18.3602 115.191 18.1655 114.329 18.1655C113.41 18.1655 112.602 18.3892 111.906 18.8366C111.21 19.2758 110.667 19.8558 110.278 20.5767C109.896 21.2893 109.702 22.0723 109.693 22.9258V25.5732C109.693 26.6835 109.896 27.6364 110.302 28.4318C110.708 29.219 111.276 29.8239 112.005 30.2464C112.734 30.6607 113.588 30.8679 114.566 30.8679C115.22 30.8679 115.813 30.7768 116.343 30.5945C116.873 30.4039 117.333 30.1263 117.722 29.7617C118.112 29.3971 118.406 28.9455 118.605 28.407L122.806 28.8793C122.541 29.9896 122.035 30.959 121.29 31.7876C120.552 32.608 119.608 33.246 118.456 33.7017C117.304 34.1491 115.987 34.3729 114.503 34.3729ZM131.298 22.8139V34H126.799V14.9091H131.099V18.1531H131.323C131.762 17.0842 132.462 16.2348 133.423 15.6051C134.393 14.9754 135.59 14.6605 137.015 14.6605C138.333 14.6605 139.48 14.9422 140.458 15.5057C141.444 16.0691 142.207 16.8853 142.745 17.9542C143.292 19.0231 143.561 20.3198 143.553 21.8445V34H139.054V22.5405C139.054 21.2644 138.722 20.266 138.059 19.5451C137.405 18.8242 136.497 18.4638 135.337 18.4638C134.55 18.4638 133.85 18.6378 133.237 18.9858C132.632 19.3255 132.156 19.8185 131.808 20.4648C131.468 21.1112 131.298 21.8942 131.298 22.8139ZM156.454 34.3729C154.548 34.3729 152.912 33.9544 151.545 33.1175C150.186 32.2807 149.138 31.1248 148.4 29.6499C147.671 28.1667 147.307 26.4598 147.307 24.5291C147.307 22.5902 147.679 20.8791 148.425 19.396C149.171 17.9045 150.223 16.7444 151.582 15.9158C152.949 15.079 154.565 14.6605 156.429 14.6605C157.979 14.6605 159.35 14.9464 160.543 15.5181C161.745 16.0816 162.702 16.8812 163.414 17.9169C164.127 18.9444 164.533 20.1458 164.633 21.5213H160.332C160.158 20.6016 159.744 19.8351 159.089 19.2219C158.443 18.6005 157.577 18.2898 156.492 18.2898C155.572 18.2898 154.764 18.5384 154.068 19.0355C153.372 19.5244 152.829 20.2287 152.44 21.1484C152.059 22.0682 151.868 23.1702 151.868 24.4545C151.868 25.7554 152.059 26.8741 152.44 27.8104C152.821 28.7384 153.355 29.4551 154.043 29.9606C154.739 30.4577 155.555 30.7063 156.492 30.7063C157.154 30.7063 157.747 30.582 158.269 30.3335C158.799 30.0766 159.243 29.7079 159.599 29.2273C159.955 28.7467 160.2 28.1625 160.332 27.4748H164.633C164.525 28.8254 164.127 30.0227 163.439 31.0668C162.752 32.1025 161.815 32.9145 160.63 33.5028C159.446 34.0829 158.053 34.3729 156.454 34.3729Z" fill="#151515"/>
<path d="M0 38.166L25.1156 13.0456V3L0 28.1236V38.166Z" fill="#6A4DF4"/>
<path d="M10.8812 38.1661L36 13.0456V4.60474L10.8812 29.7284V38.1661Z" fill="#6A4DF4"/>
<path d="M22 38.1661L47.1188 13.0456V4.60474L22 29.7284V38.1661Z" fill="#6A4DF4"/>
</svg>
